%TF.GenerationSoftware,KiCad,Pcbnew,8.0.4*%
%TF.CreationDate,2024-08-08T00:40:07-04:00*%
%TF.ProjectId,pcb,7063622e-6b69-4636-9164-5f7063625858,1.1*%
%TF.SameCoordinates,Original*%
%TF.FileFunction,Soldermask,Bot*%
%TF.FilePolarity,Negative*%
%FSLAX46Y46*%
G04 Gerber Fmt 4.6, Leading zero omitted, Abs format (unit mm)*
G04 Created by KiCad (PCBNEW 8.0.4) date 2024-08-08 00:40:07*
%MOMM*%
%LPD*%
G01*
G04 APERTURE LIST*
%ADD10C,3.200000*%
%ADD11R,1.500000X1.500000*%
%ADD12C,1.500000*%
%ADD13R,2.400000X2.400000*%
%ADD14C,2.400000*%
%ADD15C,2.700000*%
%ADD16R,1.700000X1.700000*%
%ADD17O,1.700000X1.700000*%
%ADD18R,2.000000X2.000000*%
%ADD19C,2.000000*%
G04 APERTURE END LIST*
D10*
%TO.C,J4*%
X158052500Y-52000000D03*
X146622500Y-52000000D03*
D11*
X156782500Y-58350000D03*
D12*
X155512500Y-60890000D03*
X154242500Y-58350000D03*
X152972500Y-60890000D03*
X151702500Y-58350000D03*
X150432500Y-60890000D03*
X149162500Y-58350000D03*
X147892500Y-60890000D03*
%TD*%
D10*
%TO.C,J3*%
X146730000Y-105250000D03*
X158160000Y-105250000D03*
D11*
X148000000Y-98900000D03*
D12*
X149270000Y-96360000D03*
X150540000Y-98900000D03*
X151810000Y-96360000D03*
X153080000Y-98900000D03*
X154350000Y-96360000D03*
X155620000Y-98900000D03*
X156890000Y-96360000D03*
%TD*%
D13*
%TO.C,J1*%
X178500000Y-48950000D03*
D14*
X175000000Y-48950000D03*
%TD*%
D15*
%TO.C,H4*%
X146000000Y-67000000D03*
%TD*%
%TO.C,H3*%
X146000000Y-90000000D03*
%TD*%
D16*
%TO.C,M7*%
X211275000Y-48000000D03*
D17*
X208735000Y-48000000D03*
X206195000Y-48000000D03*
%TD*%
D16*
%TO.C,M6*%
X225790000Y-48000000D03*
D17*
X223250000Y-48000000D03*
X220710000Y-48000000D03*
%TD*%
D16*
%TO.C,M5*%
X245540000Y-48000000D03*
D17*
X243000000Y-48000000D03*
X240460000Y-48000000D03*
%TD*%
D16*
%TO.C,M4*%
X240475000Y-110000000D03*
D17*
X243015000Y-110000000D03*
X245555000Y-110000000D03*
%TD*%
D16*
%TO.C,M3*%
X220460000Y-110000000D03*
D17*
X223000000Y-110000000D03*
X225540000Y-110000000D03*
%TD*%
D16*
%TO.C,M2*%
X205960000Y-110000000D03*
D17*
X208500000Y-110000000D03*
X211040000Y-110000000D03*
%TD*%
D16*
%TO.C,M1*%
X186210000Y-110000000D03*
D17*
X188750000Y-110000000D03*
X191290000Y-110000000D03*
%TD*%
D13*
%TO.C,J8*%
X200750000Y-48950000D03*
D14*
X197250000Y-48950000D03*
%TD*%
D13*
%TO.C,J7*%
X234750000Y-48950000D03*
D14*
X231250000Y-48950000D03*
%TD*%
D13*
%TO.C,J6*%
X231250000Y-109300000D03*
D14*
X234750000Y-109300000D03*
%TD*%
D13*
%TO.C,J5*%
X196750000Y-109300000D03*
D14*
X200250000Y-109300000D03*
%TD*%
D18*
%TO.C,K4*%
X235292500Y-104157500D03*
D19*
X240372500Y-104157500D03*
X242912500Y-104157500D03*
X245452500Y-104157500D03*
X247992500Y-104157500D03*
X247992500Y-99077500D03*
X245452500Y-99077500D03*
X242912500Y-99077500D03*
X240372500Y-99077500D03*
X235292500Y-99077500D03*
%TD*%
D18*
%TO.C,K3*%
X218042500Y-104157500D03*
D19*
X223122500Y-104157500D03*
X225662500Y-104157500D03*
X228202500Y-104157500D03*
X230742500Y-104157500D03*
X230742500Y-99077500D03*
X228202500Y-99077500D03*
X225662500Y-99077500D03*
X223122500Y-99077500D03*
X218042500Y-99077500D03*
%TD*%
%TO.C,K2*%
X200922500Y-99077500D03*
X206002500Y-99077500D03*
X208542500Y-99077500D03*
X211082500Y-99077500D03*
X213622500Y-99077500D03*
X213622500Y-104157500D03*
X211082500Y-104157500D03*
X208542500Y-104157500D03*
X206002500Y-104157500D03*
D18*
X200922500Y-104157500D03*
%TD*%
%TO.C,K8*%
X196830000Y-54092500D03*
D19*
X191750000Y-54092500D03*
X189210000Y-54092500D03*
X186670000Y-54092500D03*
X184130000Y-54092500D03*
X184130000Y-59172500D03*
X186670000Y-59172500D03*
X189210000Y-59172500D03*
X191750000Y-59172500D03*
X196830000Y-59172500D03*
%TD*%
%TO.C,K6*%
X230830000Y-59172500D03*
X225750000Y-59172500D03*
X223210000Y-59172500D03*
X220670000Y-59172500D03*
X218130000Y-59172500D03*
X218130000Y-54092500D03*
X220670000Y-54092500D03*
X223210000Y-54092500D03*
X225750000Y-54092500D03*
D18*
X230830000Y-54092500D03*
%TD*%
D19*
%TO.C,K5*%
X247830000Y-59172500D03*
X242750000Y-59172500D03*
X240210000Y-59172500D03*
X237670000Y-59172500D03*
X235130000Y-59172500D03*
X235130000Y-54092500D03*
X237670000Y-54092500D03*
X240210000Y-54092500D03*
X242750000Y-54092500D03*
D18*
X247830000Y-54092500D03*
%TD*%
D16*
%TO.C,JP1*%
X169025000Y-50750000D03*
D17*
X166485000Y-50750000D03*
X163945000Y-50750000D03*
%TD*%
D15*
%TO.C,H2*%
X250999996Y-110999996D03*
%TD*%
%TO.C,H1*%
X251000000Y-48000000D03*
%TD*%
D19*
%TO.C,K7*%
X213830000Y-59172500D03*
X208750000Y-59172500D03*
X206210000Y-59172500D03*
X203670000Y-59172500D03*
X201130000Y-59172500D03*
X201130000Y-54092500D03*
X203670000Y-54092500D03*
X206210000Y-54092500D03*
X208750000Y-54092500D03*
D18*
X213830000Y-54092500D03*
%TD*%
%TO.C,K1*%
X183792500Y-104157500D03*
D19*
X188872500Y-104157500D03*
X191412500Y-104157500D03*
X193952500Y-104157500D03*
X196492500Y-104157500D03*
X196492500Y-99077500D03*
X193952500Y-99077500D03*
X191412500Y-99077500D03*
X188872500Y-99077500D03*
X183792500Y-99077500D03*
%TD*%
D13*
%TO.C,J2*%
X244050000Y-80750000D03*
D14*
X244050000Y-77250000D03*
%TD*%
D16*
%TO.C,M8*%
X191525000Y-48000000D03*
D17*
X188985000Y-48000000D03*
X186445000Y-48000000D03*
%TD*%
M02*
