%TF.GenerationSoftware,KiCad,Pcbnew,8.0.4*%
%TF.CreationDate,2024-08-08T00:40:07-04:00*%
%TF.ProjectId,pcb,7063622e-6b69-4636-9164-5f7063625858,1.1*%
%TF.SameCoordinates,Original*%
%TF.FileFunction,Paste,Top*%
%TF.FilePolarity,Positive*%
%FSLAX46Y46*%
G04 Gerber Fmt 4.6, Leading zero omitted, Abs format (unit mm)*
G04 Created by KiCad (PCBNEW 8.0.4) date 2024-08-08 00:40:07*
%MOMM*%
%LPD*%
G01*
G04 APERTURE LIST*
G04 Aperture macros list*
%AMRoundRect*
0 Rectangle with rounded corners*
0 $1 Rounding radius*
0 $2 $3 $4 $5 $6 $7 $8 $9 X,Y pos of 4 corners*
0 Add a 4 corners polygon primitive as box body*
4,1,4,$2,$3,$4,$5,$6,$7,$8,$9,$2,$3,0*
0 Add four circle primitives for the rounded corners*
1,1,$1+$1,$2,$3*
1,1,$1+$1,$4,$5*
1,1,$1+$1,$6,$7*
1,1,$1+$1,$8,$9*
0 Add four rect primitives between the rounded corners*
20,1,$1+$1,$2,$3,$4,$5,0*
20,1,$1+$1,$4,$5,$6,$7,0*
20,1,$1+$1,$6,$7,$8,$9,0*
20,1,$1+$1,$8,$9,$2,$3,0*%
G04 Aperture macros list end*
%ADD10R,2.000000X3.000000*%
%ADD11RoundRect,1.000000X0.375000X0.000010X-0.375000X0.000010X-0.375000X-0.000010X0.375000X-0.000010X0*%
%ADD12RoundRect,0.150000X0.825000X0.150000X-0.825000X0.150000X-0.825000X-0.150000X0.825000X-0.150000X0*%
%ADD13RoundRect,0.375000X-0.375000X0.625000X-0.375000X-0.625000X0.375000X-0.625000X0.375000X0.625000X0*%
%ADD14RoundRect,0.500000X-1.400000X0.500000X-1.400000X-0.500000X1.400000X-0.500000X1.400000X0.500000X0*%
%ADD15RoundRect,0.150000X-0.150000X0.512500X-0.150000X-0.512500X0.150000X-0.512500X0.150000X0.512500X0*%
%ADD16R,2.000000X1.600000*%
%ADD17RoundRect,0.200000X0.275000X-0.200000X0.275000X0.200000X-0.275000X0.200000X-0.275000X-0.200000X0*%
%ADD18RoundRect,0.200000X-0.275000X0.200000X-0.275000X-0.200000X0.275000X-0.200000X0.275000X0.200000X0*%
%ADD19RoundRect,0.218750X-0.218750X-0.256250X0.218750X-0.256250X0.218750X0.256250X-0.218750X0.256250X0*%
%ADD20RoundRect,0.150000X-0.150000X0.587500X-0.150000X-0.587500X0.150000X-0.587500X0.150000X0.587500X0*%
%ADD21RoundRect,0.225000X0.250000X-0.225000X0.250000X0.225000X-0.250000X0.225000X-0.250000X-0.225000X0*%
%ADD22RoundRect,0.225000X0.225000X0.250000X-0.225000X0.250000X-0.225000X-0.250000X0.225000X-0.250000X0*%
%ADD23RoundRect,0.250000X-1.250000X-0.550000X1.250000X-0.550000X1.250000X0.550000X-1.250000X0.550000X0*%
%ADD24RoundRect,0.225000X-0.225000X-0.250000X0.225000X-0.250000X0.225000X0.250000X-0.225000X0.250000X0*%
%ADD25RoundRect,0.250000X-0.550000X1.250000X-0.550000X-1.250000X0.550000X-1.250000X0.550000X1.250000X0*%
%ADD26RoundRect,0.100000X-0.100000X0.637500X-0.100000X-0.637500X0.100000X-0.637500X0.100000X0.637500X0*%
%ADD27RoundRect,0.200000X-0.200000X-0.275000X0.200000X-0.275000X0.200000X0.275000X-0.200000X0.275000X0*%
%ADD28RoundRect,0.200000X0.200000X0.275000X-0.200000X0.275000X-0.200000X-0.275000X0.200000X-0.275000X0*%
%ADD29RoundRect,0.150000X-0.587500X-0.150000X0.587500X-0.150000X0.587500X0.150000X-0.587500X0.150000X0*%
%ADD30RoundRect,0.150000X0.587500X0.150000X-0.587500X0.150000X-0.587500X-0.150000X0.587500X-0.150000X0*%
%ADD31RoundRect,0.218750X0.218750X0.256250X-0.218750X0.256250X-0.218750X-0.256250X0.218750X-0.256250X0*%
%ADD32RoundRect,0.225000X-0.225000X-0.375000X0.225000X-0.375000X0.225000X0.375000X-0.225000X0.375000X0*%
%ADD33RoundRect,0.225000X0.225000X0.375000X-0.225000X0.375000X-0.225000X-0.375000X0.225000X-0.375000X0*%
%ADD34RoundRect,0.150000X0.150000X-0.875000X0.150000X0.875000X-0.150000X0.875000X-0.150000X-0.875000X0*%
G04 APERTURE END LIST*
D10*
%TO.C,L1*%
X164300000Y-65500000D03*
X170700000Y-65500000D03*
%TD*%
D11*
%TO.C,U8*%
X179082500Y-109500750D03*
X179082500Y-106960750D03*
X179082500Y-104420750D03*
X179082500Y-101880750D03*
X179082500Y-99340750D03*
X179082500Y-96800750D03*
X179082500Y-94260750D03*
X162917500Y-94260750D03*
X162917500Y-96800750D03*
X162917500Y-99340750D03*
X162917500Y-101880750D03*
X162917500Y-104420750D03*
X162917500Y-106960750D03*
X162917500Y-109500750D03*
%TD*%
D12*
%TO.C,U7*%
X158725000Y-67905000D03*
X158725000Y-66635000D03*
X158725000Y-65365000D03*
X158725000Y-64095000D03*
X153775000Y-64095000D03*
X153775000Y-65365000D03*
X153775000Y-66635000D03*
X153775000Y-67905000D03*
%TD*%
%TO.C,U6*%
X161200000Y-79655000D03*
X161200000Y-78385000D03*
X161200000Y-77115000D03*
X161200000Y-75845000D03*
X156250000Y-75845000D03*
X156250000Y-77115000D03*
X156250000Y-78385000D03*
X156250000Y-79655000D03*
%TD*%
D13*
%TO.C,U5*%
X178800000Y-64350000D03*
X176500000Y-64350000D03*
D14*
X176500000Y-70650000D03*
D13*
X174200000Y-64350000D03*
%TD*%
D15*
%TO.C,U4*%
X170450000Y-54112500D03*
X169500000Y-54112500D03*
X168550000Y-54112500D03*
X168550000Y-56387500D03*
X169500000Y-56387500D03*
X170450000Y-56387500D03*
%TD*%
D16*
%TO.C,SW3*%
X179300000Y-81250000D03*
X184700000Y-81250000D03*
%TD*%
%TO.C,SW2*%
X169950000Y-81250000D03*
X164550000Y-81250000D03*
%TD*%
D17*
%TO.C,R44*%
X149150000Y-78325000D03*
X149150000Y-76675000D03*
%TD*%
D18*
%TO.C,R43*%
X149150000Y-81537500D03*
X149150000Y-79887500D03*
%TD*%
%TO.C,R16*%
X177000000Y-77925000D03*
X177000000Y-79575000D03*
%TD*%
%TO.C,R15*%
X172250000Y-77925000D03*
X172250000Y-79575000D03*
%TD*%
D19*
%TO.C,D25*%
X150862500Y-76750000D03*
X152437500Y-76750000D03*
%TD*%
%TO.C,D24*%
X150862500Y-81500000D03*
X152437500Y-81500000D03*
%TD*%
D20*
%TO.C,D15*%
X155425000Y-70312500D03*
X153525000Y-70312500D03*
X154475000Y-72187500D03*
%TD*%
D21*
%TO.C,C14*%
X161250000Y-65390000D03*
X161250000Y-63840000D03*
%TD*%
D22*
%TO.C,C13*%
X149975000Y-64000000D03*
X151525000Y-64000000D03*
%TD*%
%TO.C,C12*%
X157750000Y-81500000D03*
X156200000Y-81500000D03*
%TD*%
D21*
%TO.C,C11*%
X177000000Y-82775000D03*
X177000000Y-81225000D03*
%TD*%
%TO.C,C10*%
X172250000Y-82775000D03*
X172250000Y-81225000D03*
%TD*%
D23*
%TO.C,C9*%
X174300000Y-75250000D03*
X178700000Y-75250000D03*
%TD*%
%TO.C,C8*%
X174300000Y-59750000D03*
X178700000Y-59750000D03*
%TD*%
D24*
%TO.C,C7*%
X172725000Y-54000000D03*
X174275000Y-54000000D03*
%TD*%
D22*
%TO.C,C6*%
X174275000Y-55750000D03*
X172725000Y-55750000D03*
%TD*%
D24*
%TO.C,C5*%
X168725000Y-58500000D03*
X170275000Y-58500000D03*
%TD*%
D25*
%TO.C,C1*%
X164500000Y-55050000D03*
X164500000Y-59450000D03*
%TD*%
D26*
%TO.C,U2*%
X211725000Y-78887500D03*
X211075000Y-78887500D03*
X210425000Y-78887500D03*
X209775000Y-78887500D03*
X209125000Y-78887500D03*
X208475000Y-78887500D03*
X207825000Y-78887500D03*
X207175000Y-78887500D03*
X206525000Y-78887500D03*
X205875000Y-78887500D03*
X205225000Y-78887500D03*
X204575000Y-78887500D03*
X203925000Y-78887500D03*
X203275000Y-78887500D03*
X203275000Y-84612500D03*
X203925000Y-84612500D03*
X204575000Y-84612500D03*
X205225000Y-84612500D03*
X205875000Y-84612500D03*
X206525000Y-84612500D03*
X207175000Y-84612500D03*
X207825000Y-84612500D03*
X208475000Y-84612500D03*
X209125000Y-84612500D03*
X209775000Y-84612500D03*
X210425000Y-84612500D03*
X211075000Y-84612500D03*
X211725000Y-84612500D03*
%TD*%
D18*
%TO.C,R41*%
X235000000Y-88675000D03*
X235000000Y-90325000D03*
%TD*%
%TO.C,R40*%
X248500000Y-88675000D03*
X248500000Y-90325000D03*
%TD*%
D27*
%TO.C,R39*%
X246925000Y-93750000D03*
X248575000Y-93750000D03*
%TD*%
%TO.C,R38*%
X217675000Y-93750000D03*
X219325000Y-93750000D03*
%TD*%
D18*
%TO.C,R37*%
X217750000Y-88675000D03*
X217750000Y-90325000D03*
%TD*%
%TO.C,R36*%
X231250000Y-88675000D03*
X231250000Y-90325000D03*
%TD*%
D27*
%TO.C,R35*%
X229675000Y-93750000D03*
X231325000Y-93750000D03*
%TD*%
D17*
%TO.C,R34*%
X236750000Y-90325000D03*
X236750000Y-88675000D03*
%TD*%
D18*
%TO.C,R33*%
X246750000Y-88675000D03*
X246750000Y-90325000D03*
%TD*%
D17*
%TO.C,R32*%
X219500000Y-90325000D03*
X219500000Y-88675000D03*
%TD*%
D18*
%TO.C,R31*%
X229500000Y-88675000D03*
X229500000Y-90325000D03*
%TD*%
D27*
%TO.C,R28*%
X200555000Y-93750000D03*
X202205000Y-93750000D03*
%TD*%
D18*
%TO.C,R27*%
X200630000Y-88675000D03*
X200630000Y-90325000D03*
%TD*%
%TO.C,R26*%
X214130000Y-88675000D03*
X214130000Y-90325000D03*
%TD*%
D27*
%TO.C,R25*%
X212305000Y-93750000D03*
X213955000Y-93750000D03*
%TD*%
%TO.C,R24*%
X183425000Y-93750000D03*
X185075000Y-93750000D03*
%TD*%
D18*
%TO.C,R23*%
X183500000Y-88675000D03*
X183500000Y-90325000D03*
%TD*%
%TO.C,R22*%
X197062500Y-90325000D03*
X197062500Y-88675000D03*
%TD*%
D27*
%TO.C,R21*%
X195250000Y-93750000D03*
X196900000Y-93750000D03*
%TD*%
D17*
%TO.C,R20*%
X202380000Y-90325000D03*
X202380000Y-88675000D03*
%TD*%
D18*
%TO.C,R19*%
X212380000Y-88675000D03*
X212380000Y-90325000D03*
%TD*%
D17*
%TO.C,R18*%
X185250000Y-88675000D03*
X185250000Y-90325000D03*
%TD*%
D18*
%TO.C,R17*%
X195312500Y-88675000D03*
X195312500Y-90325000D03*
%TD*%
D28*
%TO.C,R68*%
X197535000Y-64500000D03*
X195885000Y-64500000D03*
%TD*%
D17*
%TO.C,R67*%
X197460000Y-69575000D03*
X197460000Y-67925000D03*
%TD*%
%TO.C,R66*%
X183710000Y-69575000D03*
X183710000Y-67925000D03*
%TD*%
D28*
%TO.C,R65*%
X185285000Y-64500000D03*
X183635000Y-64500000D03*
%TD*%
D18*
%TO.C,R60*%
X195710000Y-67925000D03*
X195710000Y-69575000D03*
%TD*%
D17*
%TO.C,R59*%
X185460000Y-69575000D03*
X185460000Y-67925000D03*
%TD*%
D28*
%TO.C,R56*%
X229797500Y-64500000D03*
X231447500Y-64500000D03*
%TD*%
D17*
%TO.C,R55*%
X231372500Y-67925000D03*
X231372500Y-69575000D03*
%TD*%
%TO.C,R54*%
X217872500Y-67925000D03*
X217872500Y-69575000D03*
%TD*%
D28*
%TO.C,R53*%
X217547500Y-64500000D03*
X219197500Y-64500000D03*
%TD*%
D18*
%TO.C,R48*%
X229622500Y-69575000D03*
X229622500Y-67925000D03*
%TD*%
D17*
%TO.C,R47*%
X219622500Y-67925000D03*
X219622500Y-69575000D03*
%TD*%
D28*
%TO.C,R64*%
X214447500Y-64500000D03*
X212797500Y-64500000D03*
%TD*%
D17*
%TO.C,R63*%
X214372500Y-69575000D03*
X214372500Y-67925000D03*
%TD*%
%TO.C,R62*%
X200872500Y-69575000D03*
X200872500Y-67925000D03*
%TD*%
D28*
%TO.C,R61*%
X202197500Y-64500000D03*
X200547500Y-64500000D03*
%TD*%
D18*
%TO.C,R58*%
X212622500Y-67925000D03*
X212622500Y-69575000D03*
%TD*%
D17*
%TO.C,R57*%
X202622500Y-69575000D03*
X202622500Y-67925000D03*
%TD*%
D28*
%TO.C,R49*%
X236197500Y-64500000D03*
X234547500Y-64500000D03*
%TD*%
%TO.C,R52*%
X248447500Y-64500000D03*
X246797500Y-64500000D03*
%TD*%
D17*
%TO.C,R50*%
X234750000Y-69497500D03*
X234750000Y-67847500D03*
%TD*%
%TO.C,R51*%
X248250000Y-69497500D03*
X248250000Y-67847500D03*
%TD*%
%TO.C,R45*%
X236500000Y-69497500D03*
X236500000Y-67847500D03*
%TD*%
D18*
%TO.C,R46*%
X246500000Y-67847500D03*
X246500000Y-69497500D03*
%TD*%
D17*
%TO.C,R9*%
X201750000Y-76575000D03*
X201750000Y-74925000D03*
%TD*%
%TO.C,R8*%
X204750000Y-76575000D03*
X204750000Y-74925000D03*
%TD*%
%TO.C,R7*%
X207750000Y-76650000D03*
X207750000Y-75000000D03*
%TD*%
%TO.C,R6*%
X210750000Y-76575000D03*
X210750000Y-74925000D03*
%TD*%
D28*
%TO.C,R5*%
X197925000Y-79000000D03*
X199575000Y-79000000D03*
%TD*%
%TO.C,R4*%
X199575000Y-80750000D03*
X197925000Y-80750000D03*
%TD*%
D18*
%TO.C,R1*%
X193750000Y-85350000D03*
X193750000Y-87000000D03*
%TD*%
D27*
%TO.C,R14*%
X235925000Y-79500000D03*
X237575000Y-79500000D03*
%TD*%
%TO.C,R13*%
X235925000Y-77500000D03*
X237575000Y-77500000D03*
%TD*%
%TO.C,R12*%
X235925000Y-75500000D03*
X237575000Y-75500000D03*
%TD*%
D18*
%TO.C,R30*%
X213500000Y-80675000D03*
X213500000Y-82325000D03*
%TD*%
%TO.C,R29*%
X215500000Y-80675000D03*
X215500000Y-82325000D03*
%TD*%
D28*
%TO.C,R3*%
X199575000Y-82500000D03*
X197925000Y-82500000D03*
%TD*%
%TO.C,R2*%
X199575000Y-84250000D03*
X197925000Y-84250000D03*
%TD*%
D29*
%TO.C,Q8*%
X238812500Y-88550000D03*
X238812500Y-90450000D03*
X240687500Y-89500000D03*
%TD*%
D30*
%TO.C,Q7*%
X244687500Y-90450000D03*
X244687500Y-88550000D03*
X242812500Y-89500000D03*
%TD*%
D29*
%TO.C,Q6*%
X223437500Y-89500000D03*
X221562500Y-90450000D03*
X221562500Y-88550000D03*
%TD*%
D30*
%TO.C,Q5*%
X225562500Y-89500000D03*
X227437500Y-88550000D03*
X227437500Y-90450000D03*
%TD*%
D29*
%TO.C,Q4*%
X204442500Y-88550000D03*
X204442500Y-90450000D03*
X206317500Y-89500000D03*
%TD*%
D30*
%TO.C,Q3*%
X210317500Y-90450000D03*
X210317500Y-88550000D03*
X208442500Y-89500000D03*
%TD*%
D29*
%TO.C,Q2*%
X187312500Y-88550000D03*
X187312500Y-90450000D03*
X189187500Y-89500000D03*
%TD*%
D30*
%TO.C,Q1*%
X193250000Y-90450000D03*
X193250000Y-88550000D03*
X191375000Y-89500000D03*
%TD*%
%TO.C,Q16*%
X193585000Y-69700000D03*
X193585000Y-67800000D03*
X191710000Y-68750000D03*
%TD*%
D29*
%TO.C,Q15*%
X187585000Y-67800000D03*
X187585000Y-69700000D03*
X189460000Y-68750000D03*
%TD*%
D30*
%TO.C,Q12*%
X225685000Y-68750000D03*
X227560000Y-67800000D03*
X227560000Y-69700000D03*
%TD*%
D29*
%TO.C,Q11*%
X223560000Y-68750000D03*
X221685000Y-69700000D03*
X221685000Y-67800000D03*
%TD*%
D30*
%TO.C,Q14*%
X210560000Y-69700000D03*
X210560000Y-67800000D03*
X208685000Y-68750000D03*
%TD*%
D29*
%TO.C,Q13*%
X204685000Y-67800000D03*
X204685000Y-69700000D03*
X206560000Y-68750000D03*
%TD*%
%TO.C,Q9*%
X238497500Y-67800000D03*
X238497500Y-69700000D03*
X240372500Y-68750000D03*
%TD*%
D30*
%TO.C,Q10*%
X244560000Y-69700000D03*
X244560000Y-67800000D03*
X242685000Y-68750000D03*
%TD*%
D31*
%TO.C,D19*%
X239537500Y-93750000D03*
X237962500Y-93750000D03*
%TD*%
D19*
%TO.C,D18*%
X243712500Y-93750000D03*
X245287500Y-93750000D03*
%TD*%
D31*
%TO.C,D17*%
X222537500Y-93750000D03*
X220962500Y-93750000D03*
%TD*%
D19*
%TO.C,D16*%
X226462500Y-93750000D03*
X228037500Y-93750000D03*
%TD*%
D32*
%TO.C,D14*%
X234850000Y-96000000D03*
X238150000Y-96000000D03*
%TD*%
D33*
%TO.C,D13*%
X248400000Y-96000000D03*
X245100000Y-96000000D03*
%TD*%
D32*
%TO.C,D12*%
X217850000Y-96000000D03*
X221150000Y-96000000D03*
%TD*%
D33*
%TO.C,D11*%
X231150000Y-96000000D03*
X227850000Y-96000000D03*
%TD*%
D31*
%TO.C,D10*%
X205417500Y-93750000D03*
X203842500Y-93750000D03*
%TD*%
D19*
%TO.C,D9*%
X209092500Y-93750000D03*
X210667500Y-93750000D03*
%TD*%
D31*
%TO.C,D8*%
X188287500Y-93750000D03*
X186712500Y-93750000D03*
%TD*%
D19*
%TO.C,D7*%
X192037500Y-93750000D03*
X193612500Y-93750000D03*
%TD*%
D32*
%TO.C,D6*%
X200730000Y-96000000D03*
X204030000Y-96000000D03*
%TD*%
D33*
%TO.C,D5*%
X213780000Y-96000000D03*
X210480000Y-96000000D03*
%TD*%
D32*
%TO.C,D4*%
X183600000Y-96000000D03*
X186900000Y-96000000D03*
%TD*%
D33*
%TO.C,D3*%
X196650000Y-96000000D03*
X193350000Y-96000000D03*
%TD*%
D19*
%TO.C,D37*%
X192672500Y-64500000D03*
X194247500Y-64500000D03*
%TD*%
D31*
%TO.C,D36*%
X188497500Y-64500000D03*
X186922500Y-64500000D03*
%TD*%
D33*
%TO.C,D33*%
X197110000Y-62250000D03*
X193810000Y-62250000D03*
%TD*%
D32*
%TO.C,D32*%
X184060000Y-62250000D03*
X187360000Y-62250000D03*
%TD*%
D19*
%TO.C,D29*%
X228160000Y-64500000D03*
X226585000Y-64500000D03*
%TD*%
D31*
%TO.C,D28*%
X220835000Y-64500000D03*
X222410000Y-64500000D03*
%TD*%
D33*
%TO.C,D23*%
X227972500Y-62250000D03*
X231272500Y-62250000D03*
%TD*%
D32*
%TO.C,D22*%
X221272500Y-62250000D03*
X217972500Y-62250000D03*
%TD*%
D19*
%TO.C,D35*%
X209585000Y-64500000D03*
X211160000Y-64500000D03*
%TD*%
D31*
%TO.C,D34*%
X205410000Y-64500000D03*
X203835000Y-64500000D03*
%TD*%
D33*
%TO.C,D31*%
X214022500Y-62250000D03*
X210722500Y-62250000D03*
%TD*%
D32*
%TO.C,D30*%
X200972500Y-62250000D03*
X204272500Y-62250000D03*
%TD*%
D31*
%TO.C,D26*%
X239410000Y-64500000D03*
X237835000Y-64500000D03*
%TD*%
D19*
%TO.C,D27*%
X243585000Y-64500000D03*
X245160000Y-64500000D03*
%TD*%
D33*
%TO.C,D21*%
X248022500Y-62250000D03*
X244722500Y-62250000D03*
%TD*%
D32*
%TO.C,D20*%
X234972500Y-62250000D03*
X238272500Y-62250000D03*
%TD*%
D22*
%TO.C,C2*%
X237525000Y-83500000D03*
X235975000Y-83500000D03*
%TD*%
D24*
%TO.C,C3*%
X235975000Y-81500000D03*
X237525000Y-81500000D03*
%TD*%
D22*
%TO.C,C4*%
X215025000Y-84250000D03*
X213475000Y-84250000D03*
%TD*%
D27*
%TO.C,R42*%
X234675000Y-93750000D03*
X236325000Y-93750000D03*
%TD*%
D34*
%TO.C,U3*%
X217495000Y-74600000D03*
X218765000Y-74600000D03*
X220035000Y-74600000D03*
X221305000Y-74600000D03*
X222575000Y-74600000D03*
X223845000Y-74600000D03*
X225115000Y-74600000D03*
X226385000Y-74600000D03*
X227655000Y-74600000D03*
X228925000Y-74600000D03*
X230195000Y-74600000D03*
X231465000Y-74600000D03*
X232735000Y-74600000D03*
X234005000Y-74600000D03*
X234005000Y-83900000D03*
X232735000Y-83900000D03*
X231465000Y-83900000D03*
X230195000Y-83900000D03*
X228925000Y-83900000D03*
X227655000Y-83900000D03*
X226385000Y-83900000D03*
X225115000Y-83900000D03*
X223845000Y-83900000D03*
X222575000Y-83900000D03*
X221305000Y-83900000D03*
X220035000Y-83900000D03*
X218765000Y-83900000D03*
X217495000Y-83900000D03*
%TD*%
M02*
